<?xml version="1.0" encoding="UTF-8" standalone="no"?>
<svg
   viewBox="0 0 800 800"
   version="1.1"
   id="svg4"
   sodipodi:docname="FastTCP.svg"
   width="800"
   height="800"
   inkscape:version="1.2.2 (b0a8486541, 2022-12-01)"
   xmlns:inkscape="http://www.inkscape.org/namespaces/inkscape"
   xmlns:sodipodi="http://sodipodi.sourceforge.net/DTD/sodipodi-0.dtd"
   xmlns="http://www.w3.org/2000/svg"
   xmlns:svg="http://www.w3.org/2000/svg">
  <defs
     id="defs8" />
  <sodipodi:namedview
     id="namedview6"
     pagecolor="#ffffff"
     bordercolor="#000000"
     borderopacity="0.25"
     inkscape:showpageshadow="2"
     inkscape:pageopacity="0.0"
     inkscape:pagecheckerboard="0"
     inkscape:deskcolor="#d1d1d1"
     showgrid="false"
     inkscape:zoom="0.65186406"
     inkscape:cx="-4.6021865"
     inkscape:cy="286.10259"
     inkscape:window-width="1920"
     inkscape:window-height="1161"
     inkscape:window-x="0"
     inkscape:window-y="0"
     inkscape:window-maximized="1"
     inkscape:current-layer="svg4" />
  <path
     d="m 355.04153,797.32387 c -11.89242,-1.41714 -24.36603,-3.2463 -27.7094,-4.07036 a 300.45388,300.14475 0 0 0 -14.84209,-3.12143 225.2373,225.00555 0 0 1 -16.89186,-3.95174 c -25.90336,-7.41653 -27.7594,-8.02209 -47.28846,-16.00048 -17.96674,-7.31664 -51.06929,-24.40962 -62.39302,-32.18824 -3.09965,-2.14755 -5.99933,-3.87682 -6.44303,-3.87682 -0.43745,0 -7.68664,-5.09418 -16.1107,-11.31833 -53.55651,-39.59853 -93.764507,-87.66863 -122.817507,-146.87602 -4.99944,-10.16964 -9.080234,-19.19059 -9.080234,-20.03962 0,-0.83654 -0.899899,-3.15265 -1.999776,-5.10042 -2.268496,-4.05163 -5.499385,-12.77916 -8.105343,-21.80011 a 125.27973,125.15083 0 0 0 -3.905813,-11.31832 c -1.218614,-2.87172 -2.199754,-6.36773 -2.199754,-7.77862 0,-1.41713 -1.218613,-6.02437 -2.705947,-10.26952 -1.487334,-4.21394 -2.6871994,-9.18951 -2.6871994,-11.04988 0,-1.84789 -1.1686192,-8.24059 -2.6122077,-14.20878 C 3.7370819,459.62201 0,421.45934 0,400.07126 c 0,-21.3631 3.7370819,-59.52577 7.2491889,-74.25271 1.4373392,-5.97442 2.6122077,-12.48574 2.6122077,-14.48346 0,-2.00396 0.9061484,-5.93072 1.9997764,-8.74002 1.124874,-2.7968 2.562213,-7.82231 3.224639,-11.16225 0.687423,-3.33993 2.249748,-9.09586 3.518356,-12.8291 l 3.687088,-10.77519 c 2.705947,-8.07204 5.218166,-14.90174 6.418032,-17.5612 0.687423,-1.4858 3.368373,-7.55387 5.980581,-13.4846 4.224527,-9.58281 13.279764,-27.65592 18.572922,-37.11387 1.931033,-3.46479 2.662202,-4.61348 13.111033,-20.9261 16.554397,-25.89543 44.844986,-58.11489 71.179536,-81.082409 9.28021,-8.097003 40.28299,-31.607655 41.67659,-31.607655 0.38745,0 3.31213,-1.754247 6.51802,-3.901795 8.41781,-5.631069 16.67313,-10.413108 27.43443,-15.800706 a 331.5879,331.24673 0 0 0 11.47371,-5.949456 c 1.78105,-1.023831 5.12443,-2.559577 22.29126,-10.238308 3.78083,-1.685575 7.85537,-3.221322 19.59781,-7.322888 2.58721,-0.898973 7.78663,-2.803049 11.49871,-4.195209 3.73708,-1.385917 8.13034,-2.534606 9.76766,-2.534606 1.61232,0 5.85559,-1.123716 9.42394,-2.509634 3.5621,-1.39216 10.03013,-2.977849 14.39839,-3.514736 4.34952,-0.5119155 10.13012,-1.7292753 12.84232,-2.6844345 2.68719,-0.9239449 10.06137,-2.1225761 16.37941,-2.6532202 a 453.52426,453.05763 0 0 0 24.6285,-2.9029349 c 16.79812,-2.45969118 53.31903,-2.45969118 69.94217,0 a 468.82254,468.34018 0 0 0 23.62861,2.7780775 c 5.95558,0.4931868 13.54848,1.7355181 16.89186,2.759349 3.34337,0.9988593 9.13023,2.2474335 12.84231,2.7031631 3.71209,0.493187 9.96139,2.028933 13.88595,3.439822 3.93706,1.43586 8.39906,2.584548 9.93639,2.584548 1.53732,0 4.71197,0.855274 7.03046,1.929047 2.34349,1.048803 7.29918,2.80305 11.03626,3.901795 3.71209,1.123717 10.08013,3.339936 14.18592,4.975568 4.07454,1.629389 9.54268,3.776937 12.15489,4.750825 4.81196,1.810432 40.37048,19.583886 45.20744,22.611678 39.25186,24.453326 59.44335,40.428832 86.59031,68.446839 32.73384,33.7989 54.46266,65.98714 76.57893,113.37053 1.56233,3.34618 3.94956,8.29678 5.31816,10.97497 1.3436,2.70941 2.46847,5.88079 2.46847,7.05444 0,1.18615 1.12487,4.74459 2.51222,7.92221 3.76208,8.63389 6.98047,18.46017 8.49905,25.97034 0.74991,3.68329 2.14351,8.24059 3.0934,10.11969 0.95615,1.87287 2.07477,6.63618 2.51847,10.53797 0.43745,3.89555 1.73106,10.28825 2.83093,14.16507 6.37429,22.04358 9.54269,86.98817 5.68687,115.71162 -1.14362,8.534 -2.43723,18.85347 -2.87468,22.92382 -0.73742,6.97329 -4.42451,24.99645 -7.57415,37.11387 l -3.24964,12.8291 c -6.12431,24.70304 -21.26012,59.8941 -39.7393,92.45067 -7.32418,12.92274 -31.87769,47.87034 -36.51467,51.96566 -0.4187,0.36209 -2.49347,2.80929 -4.59323,5.3876 -2.09977,2.60952 -8.83652,9.90119 -14.93583,16.194 -26.87825,27.72459 -48.55707,44.86752 -86.61531,68.47806 -4.512,2.80304 -42.78896,21.48171 -49.94441,24.38465 -3.71209,1.4858 -9.91139,3.99544 -13.76721,5.55615 -3.83082,1.54199 -8.10535,2.83427 -9.44895,2.85924 -1.3436,0.0187 -4.8807,1.21736 -7.86162,2.65322 -2.97466,1.43586 -6.76174,2.63449 -8.4428,2.65946 -1.66232,0.025 -6.51802,1.19863 -10.79254,2.60952 -4.26828,1.43586 -10.20511,2.97785 -13.18603,3.43358 -2.97467,0.46822 -9.3427,1.73552 -14.17966,2.80929 -4.83071,1.07378 -19.43533,3.17138 -32.41513,4.65718 a 369.0837,368.70396 0 0 1 -87.14649,-0.19352 z m 29.39046,-78.03589 c 1.87479,-1.46083 3.80582,-4.37001 4.31826,-6.41143 1.12488,-4.51359 182.69206,-368.1421 186.11043,-372.69939 2.88093,-3.85185 3.14965,-10.01981 0.51244,-12.19233 -1.38734,-1.16742 -18.7729,-1.53575 -65.1802,-1.46083 -34.80861,0.0749 -64.07409,0.0999 -65.03023,0.0749 -1.41234,-0.0499 -1.70606,-23.28591 -1.56232,-122.80975 0.1,-67.52914 -0.21873,-123.39659 -0.70617,-124.170706 -0.48745,-0.786602 -2.39349,-1.417132 -4.24953,-1.417132 -2.61221,0 -3.83082,1.123717 -5.43689,5.04424 -3.03091,7.291673 -11.40497,23.847768 -52.16916,102.913728 a 22213.571,22190.715 0 0 0 -25.34092,49.25625 c -7.22419,14.12137 -18.62291,36.28981 -25.29092,49.25625 a 54689.181,54632.912 0 0 0 -53.73149,104.62428 c -30.8278,60.1563 -34.55863,67.32936 -35.88348,68.91505 -2.56221,3.09646 -3.95581,10.23831 -2.51222,12.92274 1.31235,2.45969 3.93081,2.55958 69.01103,2.45969 37.20209,-0.0437 67.88615,0.14983 68.20487,0.437 0.85615,0.88025 0.53744,232.92152 -0.34371,238.4527 -0.58119,3.63335 -0.19373,5.55616 1.46858,7.21676 2.87468,2.87796 3.66209,2.85299 7.81163,-0.41203 z m 0,0"
     fill="#049688"
     id="path2"
     style="stroke-width:6.24608" />
</svg>
